<?xml version="1.0" encoding="UTF-8"?>
<svg width="65px" height="52px" viewBox="0 0 65 52" version="1.1" xmlns="http://www.w3.org/2000/svg" xmlns:xlink="http://www.w3.org/1999/xlink">
    <!-- Generator: Sketch 52.2 (67145) - http://www.bohemiancoding.com/sketch -->
    <title>noun_Camera_2045582</title>
    <desc>Created with Sketch.</desc>
    <g id="Page-1" stroke="none" stroke-width="1" fill="none" fill-rule="evenodd">
        <g id="map_inactive" transform="translate(-155.000000, -676.000000)" fill="#FF9B85" fill-rule="nonzero" stroke="#083C34">
            <g id="noun_Camera_2045582" transform="translate(156.000000, 677.000000)">
                <g id="Group">
                    <path d="M23.8,0 C21.032305,0 18.9,2.52827778 18.9,5.55555556 L18.9,6.25 L4.2,6.25 C2.81146782,6.25277778 1.57518928,7.06317361 0.91875,8.0078125 C0.26231072,8.95245139 0,10.0256042 0,11.1111111 L0,45.1388889 C0,46.6464583 0.55748763,47.9521528 1.4,48.7847222 C2.24251237,49.6172917 3.1903823,50 4.2,50 C22.4,50 40.6,50 58.8,50 C59.8096177,50 60.7574877,49.6172917 61.6,48.7847222 C62.4425123,47.9521528 63,46.6464583 63,45.1388889 L63,11.1111111 C63,10.0256042 62.737647,8.95303472 62.08125,8.0078125 C61.424853,7.06259028 60.1909301,6.25 58.8,6.25 L44.1,6.25 L44.1,5.55555556 C44.1,2.52827778 41.967695,0 39.2,0 C34.0666669,0 28.9333331,0 23.8,0 Z M23.8,4.16666667 C28.9333331,4.16666667 34.0666669,4.16666667 39.2,4.16666667 C39.232305,4.16666667 39.9,4.35206944 39.9,5.55555556 L39.9,8.33333333 C39.9001099,9.42413403 40.9004729,10.4165576 42,10.4166667 L58.625,10.4166667 C58.690247,10.526125 58.8,10.8044653 58.8,11.1111111 L58.8,45.1388889 C58.8,45.7467361 58.6746748,45.8058333 58.646875,45.8333333 C40.5489581,45.8333333 22.4510419,45.8333333 4.353125,45.8333333 C4.325328,45.8055556 4.2,45.7467361 4.2,45.1388889 L4.2,11.1111111 C4.2,10.8044653 4.3098209,10.525875 4.375,10.4166667 L21,10.4166667 C22.0995271,10.4165576 23.0998901,9.42413403 23.1,8.33333333 L23.1,5.55555556 C23.1,4.35206944 23.767695,4.16666667 23.8,4.16666667 Z M52.5,12.5 C50.5918777,12.5 49,14.0792431 49,15.9722222 C49,17.8652014 50.5918777,19.4444444 52.5,19.4444444 C54.4081223,19.4444444 56,17.8652014 56,15.9722222 C56,14.0792431 54.4081223,12.5 52.5,12.5 Z M31.5,13.8888889 C23.7928873,13.8888889 17.5,20.1318194 17.5,27.7777778 C17.5,35.4236806 23.7928873,41.6666667 31.5,41.6666667 C39.2071127,41.6666667 45.5,35.4236806 45.5,27.7777778 C45.5,20.1318194 39.2071127,13.8888889 31.5,13.8888889 Z M52.5,15.2777778 C52.8617257,15.2777778 53.2,15.6133681 53.2,15.9722222 C53.2,16.3310764 52.8617257,16.6666667 52.5,16.6666667 C52.138275,16.6666667 51.8,16.3310764 51.8,15.9722222 C51.8,15.6133681 52.138275,15.2777778 52.5,15.2777778 Z M31.5,18.0555556 C36.937264,18.0555556 41.3,22.3836528 41.3,27.7777778 C41.3,33.171875 36.937264,37.5 31.5,37.5 C26.062736,37.5 21.7,33.171875 21.7,27.7777778 C21.7,22.3836528 26.062736,18.0555556 31.5,18.0555556 Z M31.28125,19.4444444 C30.1816928,19.5012569 29.233358,20.5454542 29.2906271,21.6362847 C29.3478955,22.7271153 30.4004428,23.667925 31.5,23.6111111 C33.8444687,23.6111111 35.7,25.451875 35.7,27.7777778 C35.684327,28.8784181 36.6904447,29.8907479 37.8,29.8907479 C38.9095553,29.8907479 39.9156723,28.8784181 39.9,27.7777778 C39.9,23.2000694 36.1143174,19.4444444 31.5,19.4444444 C31.4271496,19.4406944 31.3541004,19.4406944 31.28125,19.4444444 Z" id="Shape"></path>
                </g>
            </g>
        </g>
    </g>
</svg>