<?xml version="1.0" encoding="utf-8"?>
<!-- Generator: Adobe Illustrator 23.0.1, SVG Export Plug-In . SVG Version: 6.00 Build 0)  -->
<svg version="1.1" id="Capa_1" xmlns="http://www.w3.org/2000/svg" xmlns:xlink="http://www.w3.org/1999/xlink" x="0px" y="0px"
	 viewBox="0 0 255.9 255.9" style="enable-background:new 0 0 255.9 255.9;" xml:space="preserve">
<style type="text/css">
	.st0{fill:#FF9B85;}
</style>
<g>
	<path class="st0" d="M129.3,44.6C102.6,44.6,81,66.2,81,92.9s21.6,48.3,48.3,48.3s48.3-21.6,48.3-48.3S155.9,44.6,129.3,44.6z
		 M129.1,128.1c-18.9,0-34.4-15.4-34.4-34.4s15.4-34.4,34.4-34.4s34.4,15.4,34.4,34.4S148.1,128.1,129.1,128.1z"/>
	<path class="st0" d="M129.2,1C77.5,1,35.5,43.1,35.5,94.8c0,29.8,25,74.2,39.9,98.1c9.8,15.7,20.3,30.6,29.7,42
		c15,18.3,20.3,19.9,24.2,19.9c3.9,0,9-1.5,23.9-19.9c9.4-11.5,19.9-26.4,29.7-42c15-23.9,40.2-68.4,40.2-98.1
		C223,43.1,180.9,1,129.2,1z M172.5,181.3c-19.2,31.2-36.9,52.3-43.4,57.7c-6.5-5.2-23.9-25.8-43.4-57.6
		c-22.5-36.7-35.4-68.3-35.4-86.6c0-43.5,35.4-78.9,78.9-78.9s78.9,35.4,78.9,78.9C208.1,113,195.1,144.6,172.5,181.3z"/>
</g>
</svg>
