<?xml version="1.0" encoding="utf-8"?>
<!-- Generator: Adobe Illustrator 23.0.1, SVG Export Plug-In . SVG Version: 6.00 Build 0)  -->
<svg version="1.1" id="Calque_1" xmlns="http://www.w3.org/2000/svg" xmlns:xlink="http://www.w3.org/1999/xlink" x="0px" y="0px"
	 viewBox="0 0 123.2 142.1" style="enable-background:new 0 0 123.2 142.1;" xml:space="preserve">
<style type="text/css">
	.st0{fill:#FF9B85;}
	.st1{enable-background:new    ;}
</style>
<title>Plan de travail 19 copie</title>
<path class="st0" d="M98.9,34.9c0.3-0.6,0.1-1.4-0.5-1.7c0,0,0,0,0,0c-0.6-0.3-1.3-0.1-1.7,0.5c0,0,0,0,0,0c0,0-0.2,0.2-0.3,0.3
	c-1.7,1.8-2.5,4.4-2.1,6.9c0.9,5.3,0.8,7.4-0.5,8.5c-1.8,1.5-6.2,3.6-8.6,4.7c-0.1,0.4-0.1,0.8-0.2,1.2l0,0v0.1l0.1,0.4
	c0.1,0.3,0.2,0.7,0.3,1c2.2-1,7.7-3.5,9.9-5.4s2.4-5.2,1.4-10.7c-0.3-1.8,0.2-3.6,1.5-4.8C98.6,35.4,98.8,35.1,98.9,34.9z"/>
<path class="st0" d="M37.4,53.9c-2.5-1.2-6.6-3.2-8.3-4.6c-1.3-1-1.4-3.2-0.5-8.5c0.4-2.5-0.3-5-2.1-6.9l-0.2-0.3
	c-0.3-0.6-1.1-0.8-1.7-0.5s-0.8,1.1-0.5,1.7c0.2,0.2,0.3,0.5,0.5,0.7c1.3,1.3,1.8,3.1,1.5,4.8c-1,5.6-1,8.8,1.4,10.8
	s7.7,4.4,9.9,5.4c0.1-0.5,0.1-0.8,0.2-1.1S37.5,54.6,37.4,53.9z"/>
<path class="st0" d="M84.8,86.5c2.3,1,7.2,3.4,9,4.9c1.3,1.1,1.4,3.2,0.5,8.4c-0.4,2.5,0.3,5,2.1,6.9l0.2,0.3
	c0.3,0.6,1.1,0.8,1.7,0.5s0.8-1.1,0.5-1.7c-0.2-0.2-0.3-0.5-0.5-0.7c-1.3-1.3-1.8-3.1-1.5-4.8c1-5.6,1-8.8-1.4-10.8s-7.9-4.5-10-5.4
	c-0.1,0.3-0.1,0.6-0.2,1C85,85.5,84.9,86,84.8,86.5z"/>
<path class="st0" d="M27.3,89.5c-2.4,2-2.3,5.2-1.4,10.8c0.3,1.8-0.2,3.6-1.5,4.8c-0.2,0.2-0.4,0.5-0.5,0.7
	c-0.3,0.6-0.1,1.4,0.5,1.7c0.2,0.1,0.4,0.2,0.6,0.2c0.4,0,0.9-0.2,1.1-0.6c0-0.1,0.2-0.2,0.3-0.3c1.7-1.8,2.5-4.4,2-6.9
	c-0.9-5.3-0.8-7.4,0.5-8.4c1.9-1.6,6.9-3.9,9.1-5c-0.2-0.8-0.4-1.6-0.5-2.5C35.5,84.9,29.7,87.6,27.3,89.5z"/>
<path class="st0" d="M86.5,64c1.2,0.6,2.4,1.3,3.5,2.1c1.3,1.1,1.4,3.2,0.5,8.4c-0.4,2.5,0.3,5,2.1,6.9l0.2,0.3
	c0.3,0.6,1.1,0.8,1.7,0.5s0.8-1.1,0.5-1.7l0,0c-0.2-0.2-0.3-0.5-0.5-0.7c-1.3-1.3-1.9-3.1-1.6-4.9c1-5.6,1-8.8-1.4-10.8
	c-1.7-1.2-3.4-2.3-5.3-3.2v0.5C86.4,62.2,86.4,63,86.5,64z"/>
<path class="st0" d="M31.6,64.1c-2.4,2-2.3,5.2-1.4,10.8c0.3,1.8-0.2,3.6-1.5,4.8c-0.2,0.2-0.4,0.5-0.5,0.7
	c-0.3,0.6-0.1,1.4,0.5,1.7c0.2,0.1,0.4,0.2,0.6,0.2c0.4,0,0.9-0.2,1.1-0.6c0-0.1,0.2-0.2,0.3-0.3c1.7-1.8,2.5-4.4,2-6.9
	c-0.9-5.3-0.8-7.4,0.5-8.4c1.1-0.8,2.3-1.6,3.5-2.2c0.1-1,0.2-2,0.3-2.9C35,61.8,33.2,62.8,31.6,64.1z"/>
<path class="st0" d="M69.4,28.4c0.5-0.8,0.7-1.7,0.7-2.6c-0.2-1.4-1.1-2.7-2.9-4c-0.1-0.1-0.1-0.1-0.2-0.2c-0.6-0.7-1-1.6-1.2-2.5
	c-0.5-1.8-1-3.3-4.2-3.3h-0.1c-3.2,0-3.6,1.4-4.2,3.3c-0.2,0.9-0.6,1.8-1.2,2.5c-0.1,0.1-0.1,0.1-0.2,0.2c-1.8,1.3-2.7,2.6-2.9,4
	c-0.1,0.9,0.1,1.8,0.7,2.6c3.3,0,6.8,0.3,7.7,0.4S66,28.4,69.4,28.4z"/>
<path class="st0" d="M61.4,53.5c2-1,5.2-1.3,8.6-1.2h0.2l1.1,0h0.2c3.8,0.3,7.5,0.8,11.2,1.5c0.3-2.1,0.6-5.9,0.3-6.8
	c-1.2-3.6-6.3-15.2-9.5-16c-2.3-0.6-9.6-0.2-12.1,0h-0.2c-1.6-0.1-5-0.3-7.9-0.3c-1.4,0-2.9,0.1-4.3,0.3c-3.2,0.8-8.3,12.4-9.5,16
	c-0.3,0.9,0,4.7,0.3,6.8C44.1,53.1,56.6,51,61.4,53.5z"/>
<path class="st0" d="M52.6,103.1c2.7,1.3,5.5,2,8.5,2.1h0.3c3.1-0.1,6.1-0.9,8.9-2.3l-8.8-42.4L52.6,103.1z"/>
<path class="st0" d="M40,56.6c-0.5,3.4-2,14.7-0.3,25.5v0.2c0.1,0.3,0.1,0.7,0.2,1s0.2,0.8,0.2,1.2v0.1c1.5,6.9,4.5,13.4,10.2,17.1
	l9.6-46.1c-0.7-0.3-1.5-0.5-2.3-0.6C53.1,54.5,45.3,55.5,40,56.6z"/>
<path class="st0" d="M57.7,55.1c0.8,0.1,1.5,0.3,2.3,0.6l0,0C59.2,55.4,58.4,55.2,57.7,55.1z"/>
<path class="st0" d="M40.2,84.6L40.2,84.6L40.2,84.6z"/>
<path class="st0" d="M40,56.6c5.3-1.1,13.2-2.1,17.7-1.5c-3.1-0.3-6.2-0.3-9.3,0.2C44.8,55.6,41.4,56.2,40,56.6
	c-0.6,3.7-2,14.8-0.3,25.6C37.9,71.3,39.4,60,40,56.6z"/>
<path class="st0" d="M39.9,83.3c-0.1-0.3-0.1-0.7-0.2-1C39.8,82.6,39.8,83,39.9,83.3z"/>
<path class="st0" d="M57.7,55.1c0.8,0.1,1.5,0.3,2.3,0.5v-0.1c-3.6-1.5-13.6-0.3-20,0.9v0.1c1.5-0.3,4.8-0.9,8.4-1.3
	C51.4,54.8,54.6,54.7,57.7,55.1z"/>
<path class="st0" d="M64,55.3c-0.4,0.1-0.7,0.2-1.1,0.3l9.5,46c2.6-1.8,4.7-4.1,6.2-6.8c2.1-3.8,3.6-7.8,4.4-12.1
	c1.9-10.8,0.4-22.3-0.2-26l-1.1-0.2C77.1,55.4,68.5,54.2,64,55.3z"/>
<path class="st0" d="M81.8,56.4c-2.5-0.5-5.2-1-7.8-1.3c-2-0.2-4-0.3-6-0.3c-1.3,0-2.7,0.2-4,0.5C68.5,54.2,77.1,55.4,81.8,56.4z"/>
<path class="st0" d="M72.5,101.6v0.2c6.2-4.1,9.2-11.5,10.6-19.1c-0.8,4.3-2.2,8.3-4.4,12.1C77.2,97.4,75,99.8,72.5,101.6z"/>
<path class="st0" d="M64,55.3c-0.4,0.1-0.7,0.2-1.1,0.3l0,0C63.3,55.5,63.6,55.3,64,55.3z"/>
<path class="st0" d="M83,56.6L83,56.6l-1.1-0.2L83,56.6z"/>
<path class="st0" d="M74,55.1c2.6,0.3,5.3,0.8,7.8,1.3l1.1,0.2v-0.1C80.3,55.9,77.2,55.4,74,55.1z"/>
<path class="st0" d="M68,54.8c-1.7-0.1-3.4,0.2-5,0.7v0.1c0.3-0.1,0.7-0.2,1-0.3C65.3,55,66.7,54.8,68,54.8z"/>
<path class="st0" d="M67.6,16.8c-0.3-1.6,0.2-3.2,1.3-4.3c1.5-1.8,2.1-3.4,1.7-4.7c-0.2-0.7-0.9-1-1.5-0.8s-1,0.9-0.8,1.5
	c0.1,0.3-0.1,1-1.2,2.4c-0.8,1-1.4,2.1-1.7,3.3C66.3,14.7,67.2,15.6,67.6,16.8z"/>
<path class="st0" d="M57.9,14.1c-0.3-1.3-0.9-2.4-1.7-3.4c-1.1-1.3-1.3-2.1-1.2-2.4c0.2-0.7-0.2-1.3-0.8-1.5S52.8,7,52.6,7.6
	c-0.4,1.3,0.2,2.9,1.7,4.7c1.1,1.2,1.6,2.8,1.2,4.4C56,15.6,56.9,14.7,57.9,14.1z"/>
<g class="st1">
	<path class="st0" d="M4.1,122.1c0-0.7,0.5-1.2,1.2-1.2h3.8c4.2,0,7.1,2.9,7.1,6.6v0c0,3.7-2.9,6.6-7.1,6.6H5.3
		c-0.7,0-1.2-0.5-1.2-1.2V122.1z M9.1,132.1c2.8,0,4.6-1.9,4.6-4.5v0c0-2.6-1.8-4.5-4.6-4.5H6.4v9H9.1z"/>
	<path class="st0" d="M27.6,133.2c0,0.6-0.5,1.1-1.2,1.1c-0.6,0-1.2-0.5-1.2-1.1v-0.5c-0.6,1-1.6,1.8-3.1,1.8
		c-2.3,0-3.6-1.5-3.6-3.9v-5.3c0-0.6,0.5-1.2,1.1-1.2c0.6,0,1.2,0.5,1.2,1.2v4.7c0,1.6,0.8,2.4,2.1,2.4c1.3,0,2.3-0.9,2.3-2.5v-4.6
		c0-0.6,0.5-1.2,1.2-1.2c0.6,0,1.2,0.5,1.2,1.2V133.2z"/>
	<path class="st0" d="M30.5,125.2c0-0.6,0.5-1.2,1.1-1.2s1.2,0.5,1.2,1.2v0.5c0.6-0.9,1.6-1.7,3.1-1.7c2.3,0,3.6,1.5,3.6,3.8v5.4
		c0,0.6-0.5,1.1-1.1,1.1s-1.2-0.5-1.2-1.1v-4.7c0-1.6-0.8-2.5-2.1-2.5c-1.3,0-2.3,0.9-2.3,2.5v4.6c0,0.6-0.5,1.1-1.2,1.1
		c-0.6,0-1.1-0.5-1.1-1.1V125.2z"/>
	<path class="st0" d="M42.8,136.4c-0.4-0.2-0.6-0.5-0.6-0.9c0-0.5,0.4-0.9,1-0.9c0.2,0,0.3,0,0.4,0.1c0.9,0.5,1.9,0.8,3.1,0.8
		c2.1,0,3.2-1.1,3.2-3.1v-0.8c-0.8,1.1-1.9,1.8-3.5,1.8c-2.4,0-4.6-1.7-4.6-4.7v0c0-3,2.2-4.7,4.6-4.7c1.7,0,2.7,0.8,3.5,1.7v-0.5
		c0-0.6,0.5-1.1,1.1-1.1c0.6,0,1.2,0.5,1.2,1.2v6.9c0,1.7-0.4,2.9-1.3,3.8c-0.9,0.9-2.3,1.3-4.1,1.3C45.3,137.3,44.1,137,42.8,136.4
		z M49.9,128.7L49.9,128.7c0-1.7-1.3-2.8-2.9-2.8s-2.8,1.1-2.8,2.8v0c0,1.6,1.3,2.8,2.8,2.8C48.5,131.5,49.9,130.4,49.9,128.7z"/>
	<path class="st0" d="M61,122.1c0-0.7,0.5-1.2,1.2-1.2h4.8c1.5,0,2.7,0.4,3.5,1.2c0.6,0.6,0.9,1.3,0.9,2.2v0c0,1.6-0.9,2.5-1.9,3
		c1.6,0.5,2.6,1.4,2.6,3.2v0c0,2.4-2,3.6-4.9,3.6h-5c-0.7,0-1.2-0.5-1.2-1.2V122.1z M66.5,126.5c1.5,0,2.5-0.6,2.5-1.8v0
		c0-1-0.8-1.7-2.3-1.7h-3.4v3.5H66.5z M67.1,132.2c1.6,0,2.6-0.6,2.6-1.8v0c0-1.1-0.9-1.8-2.7-1.8h-3.7v3.6H67.1z"/>
	<path class="st0" d="M79,134.5c-2.9,0-5.1-2.1-5.1-5.2v0c0-2.9,2-5.2,4.9-5.2c3.2,0,4.8,2.6,4.8,4.9c0,0.6-0.5,1.1-1.1,1.1h-6.3
		c0.2,1.6,1.4,2.5,2.9,2.5c1,0,1.7-0.3,2.4-0.9c0.2-0.1,0.3-0.2,0.6-0.2c0.5,0,0.9,0.4,0.9,0.9c0,0.3-0.1,0.5-0.3,0.7
		C81.7,133.9,80.6,134.5,79,134.5z M81.3,128.5c-0.2-1.5-1-2.6-2.5-2.6c-1.4,0-2.4,1.1-2.6,2.6H81.3z"/>
	<path class="st0" d="M90.5,134.5c-2.9,0-5.1-2.1-5.1-5.2v0c0-2.9,2-5.2,4.9-5.2c3.2,0,4.8,2.6,4.8,4.9c0,0.6-0.5,1.1-1.1,1.1h-6.3
		c0.2,1.6,1.4,2.5,2.9,2.5c1,0,1.7-0.3,2.4-0.9c0.2-0.1,0.3-0.2,0.6-0.2c0.5,0,0.9,0.4,0.9,0.9c0,0.3-0.1,0.5-0.3,0.7
		C93.2,133.9,92.1,134.5,90.5,134.5z M92.8,128.5c-0.2-1.5-1-2.6-2.5-2.6c-1.4,0-2.4,1.1-2.6,2.6H92.8z"/>
	<path class="st0" d="M97.9,131.5v-5.3h-0.4c-0.6,0-1-0.4-1-1s0.4-1,1-1h0.4v-1.7c0-0.6,0.5-1.1,1.2-1.1c0.6,0,1.1,0.5,1.1,1.1v1.7
		h1.8c0.6,0,1,0.4,1,1s-0.5,1-1,1h-1.8v4.9c0,0.9,0.5,1.3,1.2,1.3c0.3,0,0.5-0.1,0.6-0.1c0.5,0,1,0.4,1,0.9c0,0.4-0.3,0.8-0.6,0.9
		c-0.5,0.2-1,0.3-1.6,0.3C99,134.4,97.9,133.7,97.9,131.5z"/>
	<path class="st0" d="M105.3,121.4c0-0.6,0.5-1.1,1.1-1.1c0.6,0,1.2,0.5,1.2,1.1v11.8c0,0.6-0.5,1.1-1.2,1.1c-0.6,0-1.1-0.5-1.1-1.1
		V121.4z"/>
	<path class="st0" d="M115.2,134.5c-2.9,0-5.1-2.1-5.1-5.2v0c0-2.9,2-5.2,4.9-5.2c3.2,0,4.8,2.6,4.8,4.9c0,0.6-0.5,1.1-1.1,1.1h-6.3
		c0.2,1.6,1.4,2.5,2.9,2.5c1,0,1.7-0.3,2.4-0.9c0.2-0.1,0.3-0.2,0.6-0.2c0.5,0,0.9,0.4,0.9,0.9c0,0.3-0.1,0.5-0.3,0.7
		C117.9,133.9,116.8,134.5,115.2,134.5z M117.5,128.5c-0.2-1.5-1-2.6-2.5-2.6c-1.4,0-2.4,1.1-2.6,2.6H117.5z"/>
</g>
</svg>
