<svg id="Calque_1" data-name="Calque 1" xmlns="http://www.w3.org/2000/svg" viewBox="0 0 154.41 206.41"><defs><style>.cls-1{fill:#ff9b85;}</style></defs><title>Plan de travail 1 copie 7</title><path class="cls-1" d="M152.84,58.33a2.52,2.52,0,0,0-1-3.42,2.49,2.49,0,0,0-3.39.95c-.07.11-.32.41-.53.65a16.07,16.07,0,0,0-4.16,13.9c1.84,10.67,1.59,15-1,17.11-3.57,2.93-12.45,7.26-17.37,9.53-.11.9-.23,1.69-.33,2.33,0,0,0,.06,0,.1l0,.13.12.73a20.55,20.55,0,0,1,.56,2c4.4-2,15.51-7.17,20.13-11,4.84-4,4.73-10.46,2.76-21.83-.89-5.16,1.58-8.08,3-9.82A9.21,9.21,0,0,0,152.84,58.33Z"/><path class="cls-1" d="M28.25,96.8c-5-2.33-13.38-6.46-16.81-9.27-2.59-2.13-2.85-6.45-1-17.11a16.08,16.08,0,0,0-4.16-13.9c-.21-.24-.46-.54-.51-.62A2.5,2.5,0,0,0,1.4,58.33a9.15,9.15,0,0,0,1.06,1.41c1.47,1.74,3.94,4.66,3,9.82-2,11.37-2.08,17.87,2.76,21.83,4.6,3.77,15.67,9,20.09,10.95.14-.94.26-1.7.36-2.27C28.59,99.32,28.42,98.18,28.25,96.8Z"/><path class="cls-1" d="M124.18,162.87c4.64,2.12,14.48,6.84,18.28,9.95,2.59,2.13,2.85,6.45,1,17.12a16.07,16.07,0,0,0,4.16,13.9c.21.24.46.54.51.62a2.5,2.5,0,0,0,4.37-2.44,9.2,9.2,0,0,0-1.06-1.41c-1.47-1.74-3.94-4.66-3.05-9.82,2-11.37,2.07-17.87-2.76-21.83-4.67-3.83-16-9.12-20.31-11-.14.65-.29,1.3-.44,1.94C124.66,160.86,124.43,161.87,124.18,162.87Z"/><path class="cls-1" d="M7.93,168.95c-4.84,4-4.72,10.46-2.76,21.83.89,5.16-1.58,8.08-3,9.82A9.21,9.21,0,0,0,1.06,202a2.51,2.51,0,0,0,2.18,3.74,2.47,2.47,0,0,0,2.16-1.27c.07-.11.32-.41.53-.65a16.08,16.08,0,0,0,4.16-13.9c-1.84-10.67-1.59-15,1-17.11,3.85-3.16,13.92-8,18.47-10q-.61-2.47-1.09-5C24.42,159.62,12.71,165,7.93,168.95Z"/><path class="cls-1" d="M127.73,117.27a48.25,48.25,0,0,1,7,4.36c2.59,2.13,2.85,6.45,1,17.11a16.08,16.08,0,0,0,4.16,13.9c.21.24.46.54.51.62a2.5,2.5,0,0,0,4.37-2.44,9.15,9.15,0,0,0-1.06-1.41c-1.47-1.74-3.94-4.66-3-9.82,2-11.37,2.08-17.86-2.76-21.83a65.34,65.34,0,0,0-10.67-6.42l.1.92C127.44,113.6,127.59,115.29,127.73,117.27Z"/><path class="cls-1" d="M16.48,117.44c-4.84,4-4.73,10.46-2.76,21.83.89,5.16-1.58,8.08-3,9.82a9.15,9.15,0,0,0-1.06,1.41,2.51,2.51,0,0,0,2.18,3.74A2.47,2.47,0,0,0,14,153c.07-.11.32-.41.53-.65a16.08,16.08,0,0,0,4.16-13.9c-1.84-10.67-1.59-15,1-17.11a48.84,48.84,0,0,1,7.08-4.42c.16-2.12.35-4.1.55-5.94A65.64,65.64,0,0,0,16.48,117.44Z"/><path class="cls-1" d="M93.09,45.13a8.21,8.21,0,0,0,1.32-5.29c-.32-2.81-2.28-5.52-5.82-8.08a2.51,2.51,0,0,1-.4-.36,12.71,12.71,0,0,1-2.37-5.07c-1.1-3.68-2-6.59-8.43-6.59h-.29c-6.47,0-7.34,2.91-8.43,6.59a12.71,12.71,0,0,1-2.37,5.07,2.51,2.51,0,0,1-.4.36c-3.54,2.55-5.5,5.27-5.82,8.08a8.21,8.21,0,0,0,1.32,5.29c6.68,0,13.8.56,15.52.7C78.71,45.69,86.24,45.12,93.09,45.13Z"/><path class="cls-1" d="M77,96c4-2.07,10.49-2.58,17.44-2.35l.49,0,2.27.11.47,0a190.42,190.42,0,0,1,22.78,3.06c.55-4.28,1.13-11.91.52-13.74-2.39-7.23-12.72-30.72-19.24-32.4-4.74-1.22-19.35-.36-24.58.07a2.4,2.4,0,0,1-.41,0c-3.26-.27-10.14-.7-16-.7a41.77,41.77,0,0,0-8.69.63c-6.52,1.67-16.85,25.16-19.24,32.39-.61,1.84,0,9.52.53,13.79C41.83,95.28,67.22,90.94,77,96Z"/><path class="cls-1" d="M59.07,196.46a45.65,45.65,0,0,0,17.19,4.27h.58a45.27,45.27,0,0,0,18-4.67L77,110.15Z"/><path class="cls-1" d="M33.48,102.24c-1.09,6.89-4.13,29.75-.53,51.72l.06.32c.12.7.25,1.4.38,2.1s.32,1.65.5,2.47l0,.16c3,14,9.16,27.05,20.63,34.66L73.9,100.37a19.74,19.74,0,0,0-4.58-1.15C60.1,98,44.24,100.08,33.48,102.24Z"/><path class="cls-1" d="M69.32,99.22a19.74,19.74,0,0,1,4.58,1.15v0A18.06,18.06,0,0,0,69.32,99.22Z"/><path class="cls-1" d="M33.91,159l0-.16Z"/><path class="cls-1" d="M33.48,102.24c10.77-2.17,26.62-4.21,35.84-3-3.87-.57-9.79-.71-18.85.3-7.35.82-14.07,2.12-17,2.72-1.16,7.38-4.09,30-.49,51.72C29.35,132,32.39,109.13,33.48,102.24Z"/><path class="cls-1" d="M33.38,156.39c-.13-.7-.26-1.4-.38-2.1Q33.18,155.34,33.38,156.39Z"/><path class="cls-1" d="M69.32,99.22a18.06,18.06,0,0,1,4.59,1.1l0-.23C66.65,97,46.39,99.4,33.48,102l0,.24c3-.61,9.67-1.9,17-2.72C59.53,98.51,65.45,98.65,69.32,99.22Z"/><path class="cls-1" d="M82.19,99.6a19.09,19.09,0,0,0-2.15.67l19.31,93.08A43.83,43.83,0,0,0,112,179.49c4.35-7.31,7.13-15.83,8.83-24.49,3.86-22,.88-45.14-.3-52.69l-2.24-.46C108.59,99.93,91.3,97.43,82.19,99.6Z"/><path class="cls-1" d="M118.29,101.84c-5.1-1-10.55-2-15.83-2.55a113.19,113.19,0,0,0-12.24-.65,37,37,0,0,0-8,1C91.3,97.43,108.59,99.93,118.29,101.84Z"/><path class="cls-1" d="M99.35,193.35l.07.33c12.57-8.33,18.69-23.2,21.42-38.69-1.7,8.67-4.47,17.18-8.83,24.49A43.83,43.83,0,0,1,99.35,193.35Z"/><path class="cls-1" d="M82.19,99.6a15.82,15.82,0,0,0-2.15.66h0A19.09,19.09,0,0,1,82.19,99.6Z"/><path class="cls-1" d="M120.53,102.3h0l-2.24-.46Z"/><path class="cls-1" d="M102.46,99.28c5.28.59,10.73,1.53,15.83,2.55l2.24.46,0-.29C115.23,100.95,108.77,99.92,102.46,99.28Z"/><path class="cls-1" d="M90.22,98.63c-4.28,0-7.9.47-10.22,1.46l0,.17a15.82,15.82,0,0,1,2.15-.66A37,37,0,0,1,90.22,98.63Z"/><path class="cls-1" d="M89.49,21.65A10.25,10.25,0,0,1,92,12.87C95.12,9.23,96.28,6,95.49,3.4A2.5,2.5,0,0,0,90.7,4.82c.16.52-.19,2.12-2.46,4.81a16.43,16.43,0,0,0-3.47,6.67A10.47,10.47,0,0,1,89.49,21.65Z"/><path class="cls-1" d="M69.87,16.24a16.36,16.36,0,0,0-3.52-6.89c-2.28-2.69-2.62-4.29-2.47-4.81A2.5,2.5,0,1,0,59.1,3.11c-.79,2.65.37,5.83,3.44,9.47a10.24,10.24,0,0,1,2.53,9A10.39,10.39,0,0,1,69.87,16.24Z"/></svg>