<?xml version="1.0" encoding="UTF-8"?>
<svg width="162px" height="206px" viewBox="0 0 162 206" version="1.1" xmlns="http://www.w3.org/2000/svg" xmlns:xlink="http://www.w3.org/1999/xlink">
    <!-- Generator: Sketch 52.2 (67145) - http://www.bohemiancoding.com/sketch -->
    <title>logo_rose_plein copy 7</title>
    <desc>Created with Sketch.</desc>
    <g id="Page-1" stroke="none" stroke-width="1" fill="none" fill-rule="evenodd">
        <g id="remerciements-copy-2" transform="translate(-107.000000, -126.000000)" fill="#083C34">
            <g id="logo_rose_plein-copy-7" transform="translate(107.000000, 126.000000)">
                <path d="M159.68008,58.8375992 C160.369728,57.5850609 159.907565,56.0139774 158.647679,55.3280466 C157.41035,54.6369584 155.843675,55.073354 155.147842,56.3029223 C155.075574,56.4158027 154.817474,56.7236581 154.60067,56.9699425 C150.968228,60.7750553 149.373681,66.0709153 150.305885,71.2339137 C152.205502,82.1833074 151.947402,86.6266884 149.273485,88.7919387 C145.587816,91.7986606 136.420101,96.2420416 131.340692,98.5714815 C131.227128,99.495048 131.10324,100.305734 131,100.962492 C131,100.962492 131,101.024064 131,101.065111 L131,101.198515 L131.123888,101.94763 C131.351282,102.62163 131.544243,103.306628 131.702032,104 C136.244593,101.94763 147.71456,96.6422537 152.48425,92.7119653 C157.481067,88.6072254 157.367503,81.9780704 155.333675,70.3103472 C154.414838,65.0152328 156.964867,62.0187726 158.430875,60.2332108 C158.892621,59.8101518 159.311066,59.3426651 159.68008,58.8375992 Z" id="Path" fill-opacity="0.1"></path>
                <path d="M31.5584644,98.3120607 C26.3020882,95.9198408 17.4924017,91.6795539 13.8865276,88.7945161 C11.1637247,86.6076369 10.8903932,82.1722763 12.8352524,71.2276133 C13.7827647,66.0621006 12.1592959,60.7643172 8.46194737,56.9564299 C8.24117957,56.710021 7.97836076,56.4020099 7.925797,56.3198736 C7.22036401,55.0809067 5.62007936,54.6350259 4.35146119,55.3239708 C3.08284301,56.0129158 2.62629121,57.5757971 3.3317242,58.8147639 C3.65456878,59.3312387 4.02775313,59.8160418 4.44607596,60.2624163 C5.99145056,62.048881 8.5881004,65.0468562 7.59990168,70.344648 C5.4973512,82.0182707 5.41324918,88.6918457 10.5014213,92.7575929 C15.3372874,96.6282664 26.9749044,101.997928 31.6215409,104 C31.7687194,103.034898 31.8948725,102.254603 32,101.669382 C31.915898,100.899354 31.7371812,99.728912 31.5584644,98.3120607 Z" id="Path" fill-opacity="0.1"></path>
                <path d="M131,162.035057 C136.022702,164.209053 146.674293,169.049271 150.787712,172.238482 C153.591332,174.422733 153.872777,178.852763 151.870191,189.794526 C150.892768,194.953926 152.564662,200.246096 156.373303,204.048557 C156.600623,204.29467 156.871243,204.60231 156.925367,204.684348 C157.654727,205.921826 159.304934,206.364875 160.611207,205.673926 C161.91748,204.982978 162.38516,203.419679 161.655799,202.182202 C161.323094,201.666526 160.938852,201.182331 160.508372,200.736289 C158.917128,198.951972 156.243405,195.9576 157.206811,190.666175 C159.371769,179.006583 159.447542,172.341029 154.21917,168.280168 C149.163994,164.352619 136.899509,158.927883 132.234026,157 C132.082479,157.666555 131.920107,158.333111 131.757735,158.989412 C131.51959,159.973863 131.27062,161.009587 131,162.035057 Z" id="Path" fill-opacity="0.1"></path>
                <path d="M7.7355122,168.388692 C2.52977383,172.477989 2.65884173,179.082203 4.76695065,190.706029 C5.7242042,195.981222 3.06755672,198.966409 1.54025332,200.745253 C1.09443467,201.184435 0.694594477,201.663774 0.346375302,202.176507 C-0.122817135,202.969798 -0.114855322,203.939954 0.367299881,204.726192 C0.849455083,205.512429 1.7336656,205.997114 2.6911087,206 C3.65613126,206.000404 4.54549396,205.503376 5.01433078,204.701648 C5.08962039,204.589192 5.35851183,204.282495 5.58438065,204.037137 C9.36715926,200.245493 11.0281397,194.970309 10.0587343,189.826831 C8.07969325,178.918631 8.3485847,174.491967 11.1343001,172.334863 C15.2752283,169.104319 26.1061757,164.15627 31,162.111621 C30.5626032,160.428194 30.1718144,158.72432 29.8276333,157 C25.4715919,158.850407 12.8767166,164.350511 7.7355122,168.388692 Z" id="Path" fill-opacity="0.1"></path>
                <path d="M133.505392,116.90214 C136.260882,118.147163 138.891035,119.59897 141.367038,121.241656 C144.275847,123.361649 144.567851,127.661353 142.49013,138.27127 C141.477889,143.278795 143.212264,148.414544 147.162194,152.105966 C147.398044,152.344838 147.678817,152.643429 147.734972,152.723053 C148.491697,153.924126 150.203818,154.354141 151.559101,153.683519 C152.914384,153.012897 153.39961,151.495589 152.642885,150.294516 C152.297986,149.793838 151.899307,149.323863 151.452407,148.891141 C149.801461,147.159316 147.027423,144.253034 148.08313,139.117277 C150.329315,127.800695 150.419162,121.341186 144.983395,117.389838 C141.227584,114.926657 137.2149,112.786996 133,111 L133.112309,111.915678 C133.179695,113.249382 133.348159,114.931442 133.505392,116.90214 Z" id="Path" fill-opacity="0.1"></path>
                <path d="M16.9435259,117.421165 C11.560377,121.397118 11.6827213,127.818282 13.8737964,139.119929 C14.8636729,144.248909 12.1164874,147.151355 10.5371338,148.880895 C10.0945595,149.313046 9.69974056,149.782401 9.35817971,150.282418 C8.87299728,151.053721 8.88123043,151.996988 9.37981739,152.761433 C9.87840435,153.525878 10.7927486,153.997128 11.7828212,153.999935 C12.7737513,154.006389 13.6917723,153.5354 14.1852182,152.767389 C14.2630737,152.65805 14.5411289,152.359854 14.7746953,152.121297 C18.6863903,148.434746 20.4039766,143.305775 19.401534,138.304859 C17.3550477,127.699004 17.6331029,123.395034 20.5137549,121.297719 C22.993512,119.635117 25.6279705,118.165275 28.3882785,116.904291 C28.5662339,114.797035 28.7775558,112.828938 29,111 C24.7597562,112.789386 20.7222793,114.939709 16.9435259,117.421165 Z" id="Path" fill-opacity="0.1"></path>
                <path d="M98.5413893,44.2755845 C99.6488987,42.6596374 100.149754,40.7282417 99.9610569,38.8010732 C99.6168951,35.8930625 97.5089037,33.0885397 93.7016132,30.4392488 C93.5447515,30.3302567 93.400522,30.2053535 93.2714109,30.0666922 C92.0271718,28.5217025 91.1564151,26.729309 90.7224622,24.8198544 C89.5394058,21.0114987 88.5714506,18 81.6559483,18 L81.3440517,18 C74.3855292,18 73.4498391,21.0114987 72.2775378,24.8198544 C71.8435849,26.729309 70.9728282,28.5217025 69.7285891,30.0666922 C69.599478,30.2053535 69.4552485,30.3302567 69.2983868,30.4392488 C65.4910963,33.0781909 63.3831049,35.8930625 63.0389431,38.8010732 C62.8502456,40.7282417 63.3511013,42.6596374 64.4586107,44.2755845 C71.6429894,44.2755845 79.3005907,44.8551169 81.1504606,45 C83.075616,44.8551169 91.1741746,44.2652357 98.5413893,44.2755845 Z" id="Path" opacity="0.1"></path>
                <path d="M80.6122455,94.1552701 C84.8073213,92.1220249 91.6138319,91.6210804 98.9027762,91.8469966 L99.416673,91.8469966 L101.797378,91.9550434 L102.2903,91.9550434 C110.311308,92.505469 118.28949,93.5091859 126.181257,94.9607102 C126.75808,90.7567056 127.366366,83.2621834 126.726617,81.4646768 C124.220059,74.3630522 113.386276,51.2901392 106.548302,49.6399691 C101.577137,48.4416314 86.2546225,49.2863613 80.7695608,49.7087262 C80.6264915,49.7202135 80.4826349,49.7202135 80.3395656,49.7087262 C76.9205787,49.4435203 69.7050483,49.0211554 63.5592622,49.0211554 C60.5066017,48.9293075 57.4520546,49.1367068 54.4454599,49.6399691 C47.6074863,51.2803167 36.7737029,74.3532298 34.2671451,81.4548544 C33.627396,83.2621834 34.2671451,90.8058178 34.8229927,95 C43.7270411,93.4480544 70.355285,89.1851151 80.6122455,94.1552701 Z" id="Path" fill-opacity="0.1"></path>
                <path d="M63,195.66306 C68.5818262,198.23473 74.6225471,199.708105 80.7811015,200 L81.3810456,200 C87.8547727,199.701106 94.1948328,198.085965 100,195.25679 L81.5465474,108 L63,195.66306 Z" id="Path"></path>
                <path d="M33.4134362,101.388701 C32.2380439,108.292363 28.9598857,131.197693 32.8419152,153.211258 L32.9066157,153.531893 C33.0360166,154.233281 33.176201,154.934669 33.3163854,155.636057 C33.4565698,156.337445 33.6614547,157.289328 33.8555562,158.110954 L33.8555562,158.271272 C37.0905807,172.299033 43.7331644,185.37491 56.1017415,193 L77,99.5149929 C75.4092828,98.9486585 73.7511537,98.5617978 72.0611959,98.3627125 C62.1188872,97.1402934 45.0163908,99.2244179 33.4134362,101.388701 Z" id="Path" fill-opacity="0.1"></path>
                <path d="M73,101 C75.0530773,101.294645 77.0674869,101.867195 79,102.705366 C77.0745559,101.842108 75.0573165,101.268753 73,101 Z" id="Path" fill-opacity="0.1"></path>
                <path d="M38,160.237268 L38,160 L38,160.237268 Z" id="Path" fill-opacity="0.1"></path>
                <path d="M36.3495031,101.432546 C47.6635614,99.2697822 64.3142416,97.2365853 74,98.4425501 C69.9345027,97.874451 63.7154474,97.7349178 54.1977716,98.7415496 C46.4764782,99.5588151 39.4170101,100.85448 36.3389979,101.452479 C35.1203992,108.807868 32.0423871,131.352433 35.824245,153 C32.0108716,131.0933 35.2044405,108.299568 36.3495031,101.432546 Z" id="Path" fill-opacity="0.1"></path>
                <path d="M35.5625974,157 C35.3701299,156 35.1776623,155 35,154 C35.1776623,155 35.3651948,156 35.5625974,157 Z" id="Path" fill-opacity="0.1"></path>
                <path d="M72.118229,98.4875136 C73.7896586,98.6241985 75.4309289,98.9318734 77,99.4026576 L77,99.2113093 C69.2785061,96.6405864 47.7306456,98.6372644 34,100.800332 L34,101 C37.1907,100.492511 44.2846896,99.4192966 52.0806332,98.7370983 C61.7059115,97.8968297 68.0022261,98.0133025 72.118229,98.4875136 Z" id="Path" fill-opacity="0.1"></path>
                <path d="M88.3159897,98.8435692 C87.5304635,99.0251838 86.7571217,99.2498762 86,99.5164738 L106.800819,193 C112.367594,189.331564 117.016331,184.582716 120.427456,179.079913 C125.113295,171.738222 128.107924,163.181286 129.939172,154.483743 C134.097181,132.388367 130.887112,109.148049 129.61601,101.565318 L127.203072,101.103323 C116.754189,99.1749998 98.1293227,96.6641616 88.3159897,98.8435692 Z" id="Path" fill-opacity="0.1"></path>
                <path d="M126,101 C120.768506,100.062521 115.177987,99.1250413 109.761852,98.6094277 C105.591771,98.1992058 101.400432,97.9957871 97.2062656,98.0000661 C94.4416456,98.0384457 91.6898919,98.3528046 89,98.9375455 C98.3141114,96.8657161 116.049903,99.2094145 126,101 Z" id="Path" fill-opacity="0.1"></path>
                <path d="M105,191.675885 L105.074919,192 C118.528153,183.818558 125.078176,169.21375 128,154 C126.180549,162.515379 123.215914,170.873611 118.549558,178.053244 C115.158562,183.439134 110.535957,188.086673 105,191.675885 Z" id="Path" fill-opacity="0.1"></path>
                <path d="M89,101 C87.9794183,101.250192 86.9768856,101.577262 86,101.978732 C86.9810326,101.590114 87.9827706,101.263303 89,101 Z" id="Path" fill-opacity="0.1"></path>
                <polygon id="Path" fill-opacity="0.1" points="128 101.682146 128 101.682146 125 101"></polygon>
                <path d="M109,98 C114.84394,98.5880399 120.876038,99.5249169 126.520753,100.541528 L129,101 L129,100.710963 C123.133924,99.6644518 115.983951,98.6378738 109,98 Z" id="Path" fill-opacity="0.1"></path>
                <path d="M97,98 C92.3933464,98 88.4970646,98.8650307 86,100.687117 L86,101 C86.7535338,100.501728 87.5268507,100.095795 88.31409,99.7852761 C91.1622665,98.6465355 94.0751413,98.0478319 97,98 Z" id="Path" fill-opacity="0.1"></path>
                <path d="M93.7372456,18 C93.1498603,15.1497487 94.0823536,12.2167311 96.2564164,10.076326 C99.387816,6.79134047 100.552054,3.87636702 99.7591679,1.52994876 C99.3253002,0.383341091 97.9620108,-0.25067933 96.6706069,0.0935620843 C95.379203,0.437803498 94.6204635,1.6374798 94.9516665,2.81145412 C95.1122511,3.28073777 94.7609723,4.72468747 92.4826784,7.1523279 C90.8199524,8.88979101 89.627849,10.950224 89,13.1717932 C91.1590124,14.2328752 92.8354874,15.9415406 93.7372456,18 Z" id="Path" opacity="0.1"></path>
                <path d="M74,15.5060512 C73.3950035,12.8876051 72.1890533,10.4567528 70.4833159,8.41741682 C68.2054637,5.64986582 67.865784,4.00373883 68.0156427,3.46874756 C68.340294,2.56982297 68.1523071,1.55955149 67.5279655,0.847892352 C66.9036239,0.136233213 65.9466447,-0.158591107 65.0453616,0.083056497 C64.1440784,0.324704101 63.4482146,1.06268057 63.2401455,1.99752156 C62.4508897,4.72391939 63.609797,7.99559678 66.676905,11.7405357 C68.9182852,14.2277406 69.8591519,17.6744347 69.2045217,21 C70.1182225,18.6400063 71.8183018,16.6923073 74,15.5060512 Z" id="Path" opacity="0.1"></path>
            </g>
        </g>
    </g>
</svg>